<svg width="1653.78505859375px" height="183.2px" xmlns="http://www.w3.org/2000/svg" viewBox="-576.892529296875 -16.599999999999994 1653.78505859375 183.2" style="background: rgba(255, 255, 255, 0);" preserveAspectRatio="xMidYMid"><defs><filter id="editing-extrude-glow"><feFlood flood-color="#ffe300" result="flood-1"></feFlood><feMorphology operator="erode" radius="1" in="SourceAlpha" result="erode"></feMorphology><feComposite operator="in" in="flood-1" in2="erode" result="comp1"></feComposite><feConvolveMatrix order="0,0" divisor="1" in="comp1" result="convolve" kernelMatrix=""></feConvolveMatrix><feOffset dx="0" dy="0" in="convolve" result="extrude"></feOffset><feComposite operator="in" in="flood-1" in2="extrude" result="comp-extrude"></feComposite><feFlood flood-color="#ffffff" result="flood-2"></feFlood><feComposite operator="in" in="flood-2" in2="SourceAlpha" result="comp2"></feComposite><feMorphology operator="dilate" radius="1" in="comp2" result="dilate"></feMorphology><feOffset dx="0" dy="0" in="dilate" result="offset"></feOffset><feGaussianBlur in="offset" stdDeviation="5.8" result="blur"></feGaussianBlur><feComponentTransfer in="blur" result="shadow"><feFuncA type="linear" slope="0.8" intercept="-0.2"></feFuncA></feComponentTransfer><feMerge><feMergeNode in="shadow"></feMergeNode><feMergeNode in="comp-extrude"></feMergeNode><feMergeNode in="SourceGraphic"></feMergeNode></feMerge></filter></defs><g filter="url(#editing-extrude-glow)"><g transform="translate(-353.1749782562256, 110.0099983215332)"><path d="M52.98-29.98L18.99-29.98L18.99-29.98Q16.94-29.98 15.11-30.79L15.11-30.79L15.11-30.79Q13.28-31.59 11.91-32.93L11.91-32.93L11.91-32.93Q10.55-34.28 9.77-36.11L9.77-36.11L9.77-36.11Q8.98-37.94 8.98-39.99L8.98-39.99L8.98-60.01L8.98-60.01Q8.98-62.06 9.77-63.89L9.77-63.89L9.77-63.89Q10.55-65.72 11.91-67.07L11.91-67.07L11.91-67.07Q13.28-68.41 15.11-69.21L15.11-69.21L15.11-69.21Q16.94-70.02 18.99-70.02L18.99-70.02L52.98-70.02L52.98-70.02Q55.03-70.02 56.86-69.21L56.86-69.21L56.86-69.21Q58.69-68.41 60.06-67.07L60.06-67.07L60.06-67.07Q61.43-65.72 62.21-63.89L62.21-63.89L62.21-63.89Q62.99-62.06 62.99-60.01L62.99-60.01L62.99-50.98L52.98-50.98L52.98-60.01L18.99-60.01L18.99-39.99L52.98-39.99L52.98-39.99Q55.03-39.99 56.86-39.21L56.86-39.21L56.86-39.21Q58.69-38.43 60.06-37.06L60.06-37.06L60.06-37.06Q61.43-35.69 62.21-33.86L62.21-33.86L62.21-33.86Q62.99-32.03 62.99-29.98L62.99-29.98L62.99-10.01L62.99-10.01Q62.99-7.96 62.21-6.13L62.21-6.13L62.21-6.13Q61.43-4.30 60.06-2.93L60.06-2.93L60.06-2.93Q58.69-1.56 56.86-0.78L56.86-0.78L56.86-0.78Q55.03 0 52.98 0L52.98 0L18.02 0L18.02 0Q15.97 0 14.14-0.78L14.14-0.78L14.14-0.78Q12.30-1.56 10.94-2.93L10.94-2.93L10.94-2.93Q9.57-4.30 8.79-6.13L8.79-6.13L8.79-6.13Q8.01-7.96 8.01-10.01L8.01-10.01L8.01-18.99L18.02-18.99L18.02-10.01L52.98-10.01L52.98-29.98ZM131.10-70.02L141.11-70.02L141.11 0L131.10 0L131.10-29.98L91.02-29.98L91.02 0L81.01 0L81.01-70.02L91.02-70.02L91.02-39.99L131.10-39.99L131.10-70.02ZM159.08-10.01L159.08-70.02L169.09-70.02L169.09-10.01L209.08-10.01L209.08-70.02L219.09-70.02L219.09-10.01L219.09-10.01Q219.09-7.96 218.31-6.13L218.31-6.13L218.31-6.13Q217.53-4.30 216.16-2.93L216.16-2.93L216.16-2.93Q214.79-1.56 212.96-0.78L212.96-0.78L212.96-0.78Q211.13 0 209.08 0L209.08 0L169.09 0L169.09 0Q167.04 0 165.21-0.78L165.21-0.78L165.21-0.78Q163.38-1.56 162.01-2.93L162.01-2.93L162.01-2.93Q160.64-4.30 159.86-6.13L159.86-6.13L159.86-6.13Q159.08-7.96 159.08-10.01L159.08-10.01ZM282.67-36.52L282.67-36.52L282.67-36.52Q284.86-35.84 286.67-34.57L286.67-34.57L286.67-34.57Q288.48-33.30 289.75-31.32L289.75-31.32L289.75-31.32Q291.02-29.35 291.70-26.66L291.70-26.66L291.70-26.66Q292.38-23.97 292.38-20.51L292.38-20.51L292.38-16.99L292.38-16.99Q292.38 0 275.39 0L275.39 0L237.06 0L237.06-70.02L273.39-70.02L273.39-70.02Q290.38-70.02 290.38-52.98L290.38-52.98L290.38-51.71L290.38-51.71Q290.38-45.80 288.50-42.07L288.50-42.07L288.50-42.07Q286.62-38.33 282.67-36.52ZM275.10-30.52L246.88-30.52L246.88-9.81L275.10-9.81L275.10-9.81Q279.05-9.81 280.81-11.67L280.81-11.67L280.81-11.67Q282.57-13.53 282.57-17.48L282.57-17.48L282.57-22.90L282.57-22.90Q282.57-26.90 280.81-28.71L280.81-28.71L280.81-28.71Q279.05-30.52 275.10-30.52L275.10-30.52ZM273.10-60.21L246.88-60.21L246.88-40.28L273.78-40.28L273.78-40.28Q277.39-40.43 278.98-42.26L278.98-42.26L278.98-42.26Q280.57-44.09 280.57-47.90L280.57-47.90L280.57-52.49L280.57-52.49Q280.57-56.49 278.81-58.35L278.81-58.35L278.81-58.35Q277.05-60.21 273.10-60.21L273.10-60.21ZM357.47-70.02L367.48-70.02L367.48 0L357.47 0L357.47-29.98L317.38-29.98L317.38 0L307.37 0L307.37-70.02L317.38-70.02L317.38-39.99L357.47-39.99L357.47-70.02ZM406.45-70.02L416.46-70.02L443.46 0L433.45 0L427.25-16.11L395.65-16.11L389.45 0L379.44 0L406.45-70.02ZM411.47-56.98L399.46-26.12L423.39-26.12L411.47-56.98ZM465.48-10.01L491.06-10.01L491.06-10.01Q498.05-10.01 501.81-13.77L501.81-13.77L501.81-13.77Q505.57-17.53 505.57-24.51L505.57-24.51L505.57-45.51L505.57-45.51Q505.57-48.93 504.59-51.61L504.59-51.61L504.59-51.61Q503.61-54.30 501.73-56.18L501.73-56.18L501.73-56.18Q499.85-58.06 497.17-59.03L497.17-59.03L497.17-59.03Q494.48-60.01 491.06-60.01L491.06-60.01L465.48-60.01L465.48-10.01ZM491.06 0L455.47 0L455.47-70.02L491.06-70.02L491.06-70.02Q496.68-70.02 501.20-68.29L501.20-68.29L501.20-68.29Q505.71-66.55 508.91-63.35L508.91-63.35L508.91-63.35Q512.11-60.16 513.84-55.62L513.84-55.62L513.84-55.62Q515.58-51.07 515.58-45.51L515.58-45.51L515.58-24.51L515.58-24.51Q515.58-18.95 513.84-14.40L513.84-14.40L513.84-14.40Q512.11-9.86 508.91-6.67L508.91-6.67L508.91-6.67Q505.71-3.47 501.20-1.73L501.20-1.73L501.20-1.73Q496.68 0 491.06 0L491.06 0ZM531.59 0L531.59-70.02L582.62-70.02L582.62-60.01L541.60-60.01L541.60-39.99L576.61-39.99L576.61-29.98L541.60-29.98L541.60-10.01L582.62-10.01L582.62 0L531.59 0ZM597.61 0L597.61-70.02L648.63-70.02L648.63-60.01L607.62-60.01L607.62-39.99L642.63-39.99L642.63-29.98L607.62-29.98L607.62-10.01L648.63-10.01L648.63 0L597.61 0ZM673.63 0L663.62 0L663.62-70.02L701.95-70.02L701.95-70.02Q718.95-70.02 718.95-52.98L718.95-52.98L718.95-43.02L718.95-43.02Q718.95-25.98 701.95-25.98L701.95-25.98L673.63-25.98L673.63 0ZM673.63-60.01L673.63-35.99L701.42-35.99L701.42-35.99Q705.42-35.99 707.18-37.74L707.18-37.74L707.18-37.74Q708.94-39.50 708.94-43.51L708.94-43.51L708.94-52.49L708.94-52.49Q708.94-56.49 707.18-58.25L707.18-58.25L707.18-58.25Q705.42-60.01 701.42-60.01L701.42-60.01L673.63-60.01ZM802.00 0L799.02 0L772.90-51.32L772.90 0L762.89 0L762.89-70.02L773.83-70.02L800.49-17.29L827.20-70.02L838.09-70.02L838.09 0L828.13 0L828.13-51.32L802.00 0ZM877.10-70.02L887.11-70.02L914.11 0L904.10 0L897.90-16.11L866.31-16.11L860.11 0L850.10 0L877.10-70.02ZM882.13-56.98L870.12-26.12L894.04-26.12L882.13-56.98ZM936.13-54.30L936.13 0L926.12 0L926.12-70.02L936.13-70.02L978.22-15.72L978.22-70.02L988.23-70.02L988.23 0L978.22 0L936.13-54.30ZM1016.21-10.01L1041.80-10.01L1041.80-10.01Q1048.78-10.01 1052.54-13.77L1052.54-13.77L1052.54-13.77Q1056.30-17.53 1056.30-24.51L1056.30-24.51L1056.30-45.51L1056.30-45.51Q1056.30-48.93 1055.32-51.61L1055.32-51.61L1055.32-51.61Q1054.35-54.30 1052.47-56.18L1052.47-56.18L1052.47-56.18Q1050.59-58.06 1047.90-59.03L1047.90-59.03L1047.90-59.03Q1045.21-60.01 1041.80-60.01L1041.80-60.01L1016.21-60.01L1016.21-10.01ZM1041.80 0L1006.20 0L1006.20-70.02L1041.80-70.02L1041.80-70.02Q1047.41-70.02 1051.93-68.29L1051.93-68.29L1051.93-68.29Q1056.45-66.55 1059.64-63.35L1059.64-63.35L1059.64-63.35Q1062.84-60.16 1064.58-55.62L1064.58-55.62L1064.58-55.62Q1066.31-51.07 1066.31-45.51L1066.31-45.51L1066.31-24.51L1066.31-24.51Q1066.31-18.95 1064.58-14.40L1064.58-14.40L1064.58-14.40Q1062.84-9.86 1059.64-6.67L1059.64-6.67L1059.64-6.67Q1056.45-3.47 1051.93-1.73L1051.93-1.73L1051.93-1.73Q1047.41 0 1041.80 0L1041.80 0ZM1103.32-70.02L1113.33-70.02L1140.33 0L1130.32 0L1124.12-16.11L1092.53-16.11L1086.33 0L1076.32 0L1103.32-70.02ZM1108.35-56.98L1096.34-26.12L1120.26-26.12L1108.35-56.98ZM1152.34-70.02L1162.35-70.02L1162.35-10.01L1198.34-10.01L1198.34 0L1152.34 0L1152.34-70.02Z" fill="#ff9700"></path></g></g><style>text {
  font-size: 64px;
  font-family: Arial Black;
  dominant-baseline: central;
  text-anchor: middle;
}</style></svg>